<svg width="223" height="362" viewBox="0 0 223 362" fill="none" xmlns="http://www.w3.org/2000/svg">
<path d="M148.888 348.936L112.119 337.622L78.8845 295.903L118.482 305.803L148.888 348.936Z" fill="#1A7B51"/>
<path d="M85.9506 264.788L48.4739 252.767L18.0683 208.219L55.545 220.24L85.9506 264.788Z" fill="#1A7B51"/>
<path d="M55.5443 220.241L18.0677 208.22L225.504 9.65266e-06L249.395 29.6094L55.5443 220.241Z" fill="#0F6741"/>
<path d="M118.478 305.799L78.8802 295.9L151.712 223.068L196.26 228.017L118.478 305.799Z" fill="#0C5D3A"/>
<path d="M196.264 228.021L151.716 223.072L115.3 184.534L159.141 188.777L196.264 228.021Z" fill="#0C4B30"/>
<path d="M148.887 348.938L118.481 305.731L196.263 227.817L160.554 189.923L85.9542 264.649L55.5486 220.026L225.504 53.3594L268.388 229.234L148.887 348.938Z" fill="#57C74B"/>
<path d="M196.264 228.021L151.716 223.072L160.201 189.838L196.264 228.021Z" fill="#0C4B30"/>
</svg>
